HIERARCHY
ROOT joint_0
{
	OFFSET 0.000000 0.000000 0.000000
	CHANNELS 6 Xposition Yposition Zposition Zrotation Yrotation Xrotation 
	JOINT joint_1
	{
		OFFSET 4.520508 -1.939880 86.268921
		CHANNELS 3 Zrotation Yrotation Xrotation
		JOINT joint_2
		{
			OFFSET -4.459717 -0.438538 78.934082
			CHANNELS 3 Zrotation Yrotation Xrotation
			JOINT joint_3
			{
				OFFSET -5.197754 -0.781128 78.796997
				CHANNELS 3 Zrotation Yrotation Xrotation
				JOINT joint_4
				{
					OFFSET 2.952026 -3.710571 109.812988
					CHANNELS 3 Zrotation Yrotation Xrotation
					JOINT joint_5
					{
						OFFSET 24.716797 -5.488037 87.903931
						CHANNELS 3 Zrotation Yrotation Xrotation
						End Site
						{
							OFFSET 0.000000 0.000000 0.000000
						}
					}
				}
				JOINT joint_6
				{
					OFFSET -3.154419 -25.484680 60.934937
					CHANNELS 3 Zrotation Yrotation Xrotation
					JOINT joint_7
					{
						OFFSET -28.997192 -144.472229 -32.671997
						CHANNELS 3 Zrotation Yrotation Xrotation
						JOINT joint_8
						{
							OFFSET 19.867676 -18.614380 -249.897949
							CHANNELS 3 Zrotation Yrotation Xrotation
							JOINT joint_9
							{
								OFFSET 5.281982 -13.816650 -264.993042
								CHANNELS 3 Zrotation Yrotation Xrotation
								End Site
								{
									OFFSET 0.000000 0.000000 0.000000
								}
							}
						}
					}
				}
				JOINT joint_10
				{
					OFFSET 6.494995 21.336792 62.257935
					CHANNELS 3 Zrotation Yrotation Xrotation
					JOINT joint_11
					{
						OFFSET 31.106567 145.200745 -27.007935
						CHANNELS 3 Zrotation Yrotation Xrotation
						JOINT joint_12
						{
							OFFSET 29.119141 24.684326 -248.460083
							CHANNELS 3 Zrotation Yrotation Xrotation
							JOINT joint_13
							{
								OFFSET 21.220093 31.248413 -262.703979
								CHANNELS 3 Zrotation Yrotation Xrotation
								End Site
								{
									OFFSET 0.000000 0.000000 0.000000
								}
							}
						}
					}
				}
			}
		}
	}
	JOINT joint_14
	{
		OFFSET -15.458496 -88.861694 -109.593018
		CHANNELS 3 Zrotation Yrotation Xrotation
		JOINT joint_15
		{
			OFFSET -6.193359 6.837952 -506.710999
			CHANNELS 3 Zrotation Yrotation Xrotation
			JOINT joint_16
			{
				OFFSET -35.096680 13.289795 -435.677025
				CHANNELS 3 Zrotation Yrotation Xrotation
				JOINT joint_17
				{
					OFFSET 158.491211 -33.916565 -71.771002
					CHANNELS 3 Zrotation Yrotation Xrotation
					End Site
					{
						OFFSET 0.000000 0.000000 0.000000
					}
				}
			}
		}
	}
	JOINT joint_18
	{
		OFFSET 23.116943 86.574158 -110.082031
		CHANNELS 3 Zrotation Yrotation Xrotation
		JOINT joint_19
		{
			OFFSET -6.125854 -0.283569 -506.757019
			CHANNELS 3 Zrotation Yrotation Xrotation
			JOINT joint_20
			{
				OFFSET -63.240234 11.589966 -432.537994
				CHANNELS 3 Zrotation Yrotation Xrotation
				JOINT joint_21
				{
					OFFSET 156.074219 -41.487305 -73.077999
					CHANNELS 3 Zrotation Yrotation Xrotation
					End Site
					{
						OFFSET 0.000000 0.000000 0.000000
					}
				}
			}
		}
	}
}
MOTION
Frames: 7
Frame Time: 0.016667
-436.398041 902.114075 1140.798950 7.393273 -0.460285 0.204920 -0.206835 0.351082 -0.971532 -0.139823 -0.073070 0.224534 -0.161710 0.062913 -0.132237 -0.168047 1.563009 0.923731 0.000000 0.000000 0.000000 0.031390 -0.095156 -0.442948 0.312199 -0.598939 1.765114 -0.242746 3.155719 -1.767792 0.000000 0.000000 0.000000 0.279456 0.536688 -0.023133 0.145446 0.276271 1.071710 0.030281 0.146647 0.148493 0.000000 0.000000 0.000000 0.127521 0.641131 -0.394391 0.106081 -0.743140 -0.155808 0.125125 1.013071 0.273585 0.000000 0.000000 0.000000 0.579439 0.736220 -0.107842 0.574822 0.551160 0.442119 0.585852 -0.067959 0.256452 0.000000 0.000000 0.000000 
-436.318512 902.029297 1140.803955 7.390156 -0.455710 0.208898 -0.211924 0.339631 -0.991210 -0.143439 -0.069502 0.228247 -0.165796 0.058648 -0.134561 -0.165529 1.570088 0.916416 0.000000 0.000000 0.000000 0.033953 -0.095664 -0.451981 0.312195 -0.600171 1.762602 -0.243765 3.172046 -1.766366 0.000000 0.000000 0.000000 0.275983 0.547036 -0.020764 0.146200 0.288242 1.070128 0.031294 0.150231 0.155555 0.000000 0.000000 0.000000 0.128414 0.638812 -0.393117 0.107052 -0.741412 -0.156407 0.125950 1.012073 0.273745 0.000000 0.000000 0.000000 0.580542 0.732105 -0.104077 0.576017 0.556742 0.436786 0.586080 -0.066809 0.256864 0.000000 0.000000 0.000000 
-436.239197 901.946594 1140.808960 7.387972 -0.450243 0.212389 -0.216370 0.328469 -1.009741 -0.146477 -0.066289 0.232071 -0.169365 0.056374 -0.138037 -0.163643 1.573634 0.910606 0.000000 0.000000 0.000000 0.035323 -0.097243 -0.459774 0.312194 -0.602346 1.759350 -0.244785 3.188112 -1.765214 0.000000 0.000000 0.000000 0.271688 0.553324 -0.016479 0.146796 0.296361 1.070079 0.032108 0.152958 0.161472 0.000000 0.000000 0.000000 0.128657 0.636712 -0.391877 0.107325 -0.741999 -0.155904 0.126264 1.011290 0.273719 0.000000 0.000000 0.000000 0.581198 0.729904 -0.099538 0.576798 0.556304 0.430694 0.585939 -0.063803 0.257596 0.000000 0.000000 0.000000 
-436.163940 901.864441 1140.816040 7.387379 -0.443833 0.214933 -0.218635 0.322643 -1.028471 -0.147257 -0.066916 0.237846 -0.170746 0.055558 -0.141485 -0.162085 1.575782 0.905623 0.000000 0.000000 0.000000 0.030716 -0.098692 -0.467307 0.312100 -0.605388 1.754702 -0.245612 3.201227 -1.763903 0.000000 0.000000 0.000000 0.262292 0.554158 -0.011637 0.147256 0.299618 1.072139 0.032642 0.154973 0.165022 0.000000 0.000000 0.000000 0.128352 0.635003 -0.390171 0.106994 -0.745830 -0.154313 0.126198 1.011877 0.273815 0.000000 0.000000 0.000000 0.581130 0.731691 -0.093460 0.576917 0.544698 0.423257 0.585223 -0.057749 0.258869 0.000000 0.000000 0.000000 
-436.088776 901.783264 1140.822998 7.388224 -0.436203 0.216971 -0.220416 0.317111 -1.046034 -0.147696 -0.068277 0.242367 -0.171644 0.056237 -0.144338 -0.161021 1.575604 0.901893 0.000000 0.000000 0.000000 0.024685 -0.100696 -0.474296 0.312012 -0.609111 1.749604 -0.246408 3.213634 -1.762861 0.000000 0.000000 0.000000 0.252888 0.550936 -0.005446 0.147461 0.298848 1.075215 0.033141 0.156736 0.168511 0.000000 0.000000 0.000000 0.127387 0.633303 -0.388313 0.105961 -0.752164 -0.151922 0.125604 1.013018 0.273789 0.000000 0.000000 0.000000 0.580558 0.734988 -0.086589 0.576563 0.526982 0.415001 0.584082 -0.050137 0.260357 0.000000 0.000000 0.000000 
-436.010925 901.705383 1140.828979 7.388009 -0.429243 0.219151 -0.221812 0.308684 -1.061876 -0.147904 -0.066918 0.245531 -0.172220 0.054755 -0.146413 -0.159973 1.576927 0.898546 0.000000 0.000000 0.000000 0.022016 -0.101987 -0.480726 0.311741 -0.611122 1.744094 -0.247373 3.228249 -1.761419 0.000000 0.000000 0.000000 0.245139 0.547263 -0.000507 0.148000 0.296286 1.082146 0.033119 0.156303 0.168928 0.000000 0.000000 0.000000 0.126882 0.632901 -0.386089 0.105379 -0.759518 -0.150943 0.125368 1.014252 0.273946 0.000000 0.000000 0.000000 0.580347 0.738855 -0.080088 0.576565 0.510352 0.406987 0.583293 -0.043493 0.261752 0.000000 0.000000 0.000000 
-435.925201 901.629333 1140.833984 7.386457 -0.424033 0.221474 -0.222845 0.295885 -1.077491 -0.147679 -0.064307 0.249637 -0.172514 0.051570 -0.149389 -0.158931 1.581251 0.895862 0.000000 0.000000 0.000000 0.023667 -0.101786 -0.485410 0.311233 -0.610205 1.738347 -0.248737 3.248163 -1.759808 0.000000 0.000000 0.000000 0.239225 0.544707 0.002761 0.149122 0.293044 1.094676 0.032273 0.151301 0.166138 0.000000 0.000000 0.000000 0.126994 0.635493 -0.382916 0.105398 -0.768199 -0.152521 0.125550 1.015209 0.274233 0.000000 0.000000 0.000000 0.580712 0.744066 -0.073505 0.577154 0.496050 0.398423 0.582932 -0.037618 0.263144 0.000000 0.000000 0.000000 
